<svg xmlns="http://www.w3.org/2000/svg" viewBox="0 0 24 24" id="instagram"><path d="M20.5 24h-17C1.57 24 0 22.43 0 20.5v-17C0 1.57 1.57 0 3.5 0h17C22.43 0 24 1.57 24 3.5v17c0 1.93-1.57 3.5-3.5 3.5zM3.5 1A2.503 2.503 0 0 0 1 3.5v17C1 21.879 2.122 23 3.5 23h17c1.378 0 2.5-1.121 2.5-2.5v-17C23 2.121 21.878 1 20.5 1h-17z"></path><path d="M12 18c-3.309 0-6-2.691-6-6s2.691-6 6-6 6 2.691 6 6-2.691 6-6 6zm0-11c-2.757 0-5 2.243-5 5s2.243 5 5 5 5-2.243 5-5-2.243-5-5-5z"></path><path d="M12 15.25c-1.792 0-3.25-1.458-3.25-3.25S10.208 8.75 12 8.75s3.25 1.458 3.25 3.25-1.458 3.25-3.25 3.25zm0-5.5c-1.241 0-2.25 1.01-2.25 2.25s1.009 2.25 2.25 2.25 2.25-1.01 2.25-2.25S13.241 9.75 12 9.75zM1 7h8v1H1zM15 7h8v1h-8z"></path><path d="M6.5 8h-3a.5.5 0 01-.5-.5v-7a.5.5 0 01.5-.5h3a.5.5 0 01.5.5v7a.5.5 0 01-.5.5zM4 7h2V1H4v6zM20.5 6h-3a.501.501 0 01-.5-.5v-3c0-.275.225-.5.5-.5h3c.275 0 .5.225.5.5v3c0 .275-.225.5-.5.5zM18 5h2V3h-2v2z"></path></svg>